<mxfile host="app.diagrams.net" modified="2024-05-30T13:26:30.624Z" agent="Mozilla/5.0 (X11; Linux x86_64; rv:125.0) Gecko/20100101 Firefox/125.0" etag="TxIKv1j58WxQmpFu8EVA" version="24.4.10" type="device">
  <diagram name="Page-1" id="e7e014a7-5840-1c2e-5031-d8a46d1fe8dd">
    <mxGraphModel dx="2515" dy="1453" grid="1" gridSize="10" guides="1" tooltips="1" connect="1" arrows="1" fold="1" page="1" pageScale="1" pageWidth="1169" pageHeight="826" background="none" math="0" shadow="0">
      <root>
        <mxCell id="0" />
        <mxCell id="1" parent="0" />
        <mxCell id="2" value="Back-end" style="swimlane;whiteSpace=wrap" parent="1" vertex="1">
          <mxGeometry x="370" y="330" width="340" height="371" as="geometry" />
        </mxCell>
        <mxCell id="10" value="API" style="fillColor=#ffe6cc;strokeColor=#d79b00;" parent="2" vertex="1">
          <mxGeometry x="170" y="273" width="110" height="50" as="geometry" />
        </mxCell>
        <mxCell id="fis4cy7Ej7IjJM2nT0fo-84" style="edgeStyle=orthogonalEdgeStyle;rounded=0;orthogonalLoop=1;jettySize=auto;html=1;entryX=0;entryY=0.5;entryDx=0;entryDy=0;fillColor=#d5e8d4;strokeColor=#82b366;" parent="2" source="fis4cy7Ej7IjJM2nT0fo-83" target="c0dH4zre-CevIN4WQfnD-37" edge="1">
          <mxGeometry relative="1" as="geometry">
            <mxPoint x="173" y="95" as="targetPoint" />
          </mxGeometry>
        </mxCell>
        <mxCell id="fis4cy7Ej7IjJM2nT0fo-83" value="Language Model" style="rounded=0;whiteSpace=wrap;html=1;fillColor=#CCCCCC;fontColor=#333333;strokeColor=#666666;" parent="2" vertex="1">
          <mxGeometry x="33" y="70" width="100" height="50" as="geometry" />
        </mxCell>
        <mxCell id="c0dH4zre-CevIN4WQfnD-37" value="Embedding space" style="shape=hexagon;perimeter=hexagonPerimeter2;whiteSpace=wrap;html=1;fixedSize=1;fillColor=#CCCCCC;" vertex="1" parent="2">
          <mxGeometry x="170" y="65" width="110" height="60" as="geometry" />
        </mxCell>
        <mxCell id="c0dH4zre-CevIN4WQfnD-40" value="" style="endArrow=classic;html=1;rounded=0;exitX=0.25;exitY=0;exitDx=0;exitDy=0;entryX=0.5;entryY=1;entryDx=0;entryDy=0;fillColor=#d5e8d4;strokeColor=#82b366;" edge="1" parent="2" source="10" target="fis4cy7Ej7IjJM2nT0fo-83">
          <mxGeometry width="50" height="50" relative="1" as="geometry">
            <mxPoint x="100" y="190" as="sourcePoint" />
            <mxPoint x="150" y="140" as="targetPoint" />
          </mxGeometry>
        </mxCell>
        <mxCell id="c0dH4zre-CevIN4WQfnD-42" value="Nearest Neighbour search" style="fillColor=#ffe6cc;strokeColor=#d79b00;whiteSpace=wrap;" vertex="1" parent="2">
          <mxGeometry x="170" y="160.5" width="110" height="50" as="geometry" />
        </mxCell>
        <mxCell id="c0dH4zre-CevIN4WQfnD-41" value="" style="endArrow=classic;html=1;rounded=0;entryX=0.5;entryY=0;entryDx=0;entryDy=0;exitX=0.5;exitY=1;exitDx=0;exitDy=0;strokeColor=#82B366;" edge="1" parent="2" source="c0dH4zre-CevIN4WQfnD-42" target="10">
          <mxGeometry width="50" height="50" relative="1" as="geometry">
            <mxPoint x="253" y="210" as="sourcePoint" />
            <mxPoint x="150" y="140" as="targetPoint" />
          </mxGeometry>
        </mxCell>
        <mxCell id="3" value="Search front-end" style="swimlane;whiteSpace=wrap;fontSize=13;fillColor=#ffe6cc;strokeColor=#d79b00;" parent="1" vertex="1">
          <mxGeometry x="800" y="413" width="200" height="288" as="geometry" />
        </mxCell>
        <mxCell id="fis4cy7Ej7IjJM2nT0fo-42" value="&lt;font color=&quot;#82b366&quot;&gt;submits query&lt;/font&gt;" style="edgeStyle=orthogonalEdgeStyle;rounded=0;orthogonalLoop=1;jettySize=auto;html=1;exitX=0.25;exitY=1;exitDx=0;exitDy=0;entryX=0.25;entryY=0;entryDx=0;entryDy=0;strokeColor=#82B366;" parent="3" source="15" target="fis4cy7Ej7IjJM2nT0fo-41" edge="1">
          <mxGeometry x="0.0119" y="-30" relative="1" as="geometry">
            <mxPoint x="95" y="130" as="sourcePoint" />
            <mxPoint x="95" y="184" as="targetPoint" />
            <mxPoint as="offset" />
          </mxGeometry>
        </mxCell>
        <mxCell id="15" value="user interface" style="fillColor=#ffe6cc;strokeColor=#d79b00;" parent="3" vertex="1">
          <mxGeometry x="40" y="60" width="120" height="50" as="geometry" />
        </mxCell>
        <mxCell id="fis4cy7Ej7IjJM2nT0fo-41" value="API wrapper" style="fillColor=#ffe6cc;strokeColor=#d79b00;" parent="3" vertex="1">
          <mxGeometry x="39.5" y="190" width="120.5" height="50" as="geometry" />
        </mxCell>
        <mxCell id="fis4cy7Ej7IjJM2nT0fo-49" value="&lt;font color=&quot;#82b366&quot;&gt;displays results&lt;/font&gt;" style="endArrow=classic;html=1;rounded=0;exitX=0.75;exitY=0;exitDx=0;exitDy=0;entryX=0.75;entryY=1;entryDx=0;entryDy=0;strokeColor=#82B366;" parent="3" source="fis4cy7Ej7IjJM2nT0fo-41" target="15" edge="1">
          <mxGeometry y="-30" width="50" height="50" relative="1" as="geometry">
            <mxPoint x="-140" y="210" as="sourcePoint" />
            <mxPoint x="-90" y="160" as="targetPoint" />
            <mxPoint as="offset" />
          </mxGeometry>
        </mxCell>
        <mxCell id="fis4cy7Ej7IjJM2nT0fo-50" value="" style="endArrow=classic;html=1;rounded=0;entryX=1;entryY=0.25;entryDx=0;entryDy=0;fillColor=#d5e8d4;strokeColor=#82B366;exitX=0;exitY=0.25;exitDx=0;exitDy=0;" parent="1" source="fis4cy7Ej7IjJM2nT0fo-41" target="10" edge="1">
          <mxGeometry width="50" height="50" relative="1" as="geometry">
            <mxPoint x="870" y="610" as="sourcePoint" />
            <mxPoint x="640.3299999999999" y="620.02" as="targetPoint" />
            <Array as="points" />
          </mxGeometry>
        </mxCell>
        <mxCell id="fis4cy7Ej7IjJM2nT0fo-51" value="HTTP POST" style="edgeLabel;html=1;align=center;verticalAlign=middle;resizable=0;points=[];fontColor=#82B366;" parent="fis4cy7Ej7IjJM2nT0fo-50" vertex="1" connectable="0">
          <mxGeometry x="-0.726" y="-1" relative="1" as="geometry">
            <mxPoint x="-57" y="-4" as="offset" />
          </mxGeometry>
        </mxCell>
        <mxCell id="fis4cy7Ej7IjJM2nT0fo-52" value="" style="endArrow=classic;html=1;rounded=0;entryX=0;entryY=0.75;entryDx=0;entryDy=0;exitX=1;exitY=0.75;exitDx=0;exitDy=0;fillColor=#d5e8d4;strokeColor=#82b366;" parent="1" source="10" target="fis4cy7Ej7IjJM2nT0fo-41" edge="1">
          <mxGeometry width="50" height="50" relative="1" as="geometry">
            <mxPoint x="640" y="640" as="sourcePoint" />
            <mxPoint x="1020" y="640" as="targetPoint" />
            <Array as="points" />
          </mxGeometry>
        </mxCell>
        <mxCell id="fis4cy7Ej7IjJM2nT0fo-53" value="HTTP GET" style="edgeLabel;html=1;align=center;verticalAlign=middle;resizable=0;points=[];fontColor=#82B366;" parent="fis4cy7Ej7IjJM2nT0fo-52" vertex="1" connectable="0">
          <mxGeometry x="0.8408" relative="1" as="geometry">
            <mxPoint x="-67" as="offset" />
          </mxGeometry>
        </mxCell>
        <mxCell id="fis4cy7Ej7IjJM2nT0fo-65" value="Epidemiology DPGs" style="swimlane;whiteSpace=wrap;html=1;fillColor=#dae8fc;strokeColor=#6c8ebf;" parent="1" vertex="1">
          <mxGeometry x="150" y="240" width="190" height="240" as="geometry" />
        </mxCell>
        <mxCell id="c0dH4zre-CevIN4WQfnD-39" value="List of tools" style="shape=hexagon;perimeter=hexagonPerimeter2;whiteSpace=wrap;html=1;fixedSize=1;fillColor=#CCCCCC;" vertex="1" parent="fis4cy7Ej7IjJM2nT0fo-65">
          <mxGeometry x="36.5" y="40" width="117" height="60" as="geometry" />
        </mxCell>
        <mxCell id="fis4cy7Ej7IjJM2nT0fo-70" value="" style="endArrow=classic;html=1;rounded=0;exitX=0.5;exitY=1;exitDx=0;exitDy=0;fillColor=#e1d5e7;strokeColor=#9673A6;entryX=0.5;entryY=0;entryDx=0;entryDy=0;" parent="fis4cy7Ej7IjJM2nT0fo-65" source="c0dH4zre-CevIN4WQfnD-39" target="c0dH4zre-CevIN4WQfnD-43" edge="1">
          <mxGeometry width="50" height="50" relative="1" as="geometry">
            <mxPoint x="160" y="-150" as="sourcePoint" />
            <mxPoint x="160" y="190.5" as="targetPoint" />
          </mxGeometry>
        </mxCell>
        <mxCell id="c0dH4zre-CevIN4WQfnD-24" value="web scraper" style="edgeLabel;html=1;align=center;verticalAlign=middle;resizable=0;points=[];fontColor=#9673A6;" vertex="1" connectable="0" parent="fis4cy7Ej7IjJM2nT0fo-70">
          <mxGeometry x="-0.3333" y="-1" relative="1" as="geometry">
            <mxPoint x="1" y="13" as="offset" />
          </mxGeometry>
        </mxCell>
        <mxCell id="c0dH4zre-CevIN4WQfnD-43" value="Tool documentation" style="shape=hexagon;perimeter=hexagonPerimeter2;whiteSpace=wrap;html=1;fixedSize=1;fillColor=#CCCCCC;" vertex="1" parent="fis4cy7Ej7IjJM2nT0fo-65">
          <mxGeometry x="36.5" y="155" width="117" height="60" as="geometry" />
        </mxCell>
        <mxCell id="fis4cy7Ej7IjJM2nT0fo-74" value="" style="endArrow=classic;html=1;rounded=0;strokeColor=#82B366;" parent="1" edge="1">
          <mxGeometry width="50" height="50" relative="1" as="geometry">
            <mxPoint x="260" y="627.8" as="sourcePoint" />
            <mxPoint x="290" y="627.8" as="targetPoint" />
          </mxGeometry>
        </mxCell>
        <mxCell id="fis4cy7Ej7IjJM2nT0fo-76" value="Real-time" style="text;html=1;align=center;verticalAlign=middle;resizable=0;points=[];autosize=1;strokeColor=none;fillColor=none;fontColor=#82B366;" parent="1" vertex="1">
          <mxGeometry x="287" y="614" width="70" height="30" as="geometry" />
        </mxCell>
        <mxCell id="fis4cy7Ej7IjJM2nT0fo-81" value="" style="endArrow=classic;html=1;rounded=0;fillColor=#e1d5e7;strokeColor=#9673A6;" parent="1" edge="1">
          <mxGeometry width="50" height="50" relative="1" as="geometry">
            <mxPoint x="260" y="597.5" as="sourcePoint" />
            <mxPoint x="290" y="597.5" as="targetPoint" />
          </mxGeometry>
        </mxCell>
        <mxCell id="c0dH4zre-CevIN4WQfnD-29" value="CRON job" style="edgeLabel;html=1;align=center;verticalAlign=middle;resizable=0;points=[];fontColor=#9673A6;" vertex="1" connectable="0" parent="fis4cy7Ej7IjJM2nT0fo-81">
          <mxGeometry x="-0.0667" y="-1" relative="1" as="geometry">
            <mxPoint x="48" as="offset" />
          </mxGeometry>
        </mxCell>
        <mxCell id="c0dH4zre-CevIN4WQfnD-16" value="projection in 2D" style="endArrow=classic;html=1;rounded=0;exitX=1;exitY=0.5;exitDx=0;exitDy=0;fillColor=#e1d5e7;strokeColor=#9673a6;fontColor=#9673A6;entryX=0;entryY=0.5;entryDx=0;entryDy=0;" edge="1" parent="1" source="c0dH4zre-CevIN4WQfnD-37" target="c0dH4zre-CevIN4WQfnD-22">
          <mxGeometry width="50" height="50" relative="1" as="geometry">
            <mxPoint x="653" y="335" as="sourcePoint" />
            <mxPoint x="800" y="360" as="targetPoint" />
          </mxGeometry>
        </mxCell>
        <mxCell id="c0dH4zre-CevIN4WQfnD-17" value="Map front-end" style="swimlane;whiteSpace=wrap;fontSize=13;fillColor=#f8cecc;strokeColor=#b85450;" vertex="1" parent="1">
          <mxGeometry x="800" y="110" width="200" height="288" as="geometry" />
        </mxCell>
        <mxCell id="c0dH4zre-CevIN4WQfnD-22" value="Tool map" style="fillColor=#f8cecc;strokeColor=#b85450;" vertex="1" parent="c0dH4zre-CevIN4WQfnD-17">
          <mxGeometry x="40" y="190" width="120" height="50" as="geometry" />
        </mxCell>
        <mxCell id="c0dH4zre-CevIN4WQfnD-44" value="Tool card deck" style="fillColor=#f8cecc;strokeColor=#b85450;" vertex="1" parent="c0dH4zre-CevIN4WQfnD-17">
          <mxGeometry x="40" y="70" width="120" height="50" as="geometry" />
        </mxCell>
        <mxCell id="c0dH4zre-CevIN4WQfnD-45" value="" style="endArrow=classic;startArrow=classic;html=1;rounded=0;entryX=0.5;entryY=1;entryDx=0;entryDy=0;exitX=0.5;exitY=0;exitDx=0;exitDy=0;fillColor=#d5e8d4;strokeColor=#82b366;" edge="1" parent="c0dH4zre-CevIN4WQfnD-17" source="c0dH4zre-CevIN4WQfnD-22" target="c0dH4zre-CevIN4WQfnD-44">
          <mxGeometry width="50" height="50" relative="1" as="geometry">
            <mxPoint x="-450" y="380" as="sourcePoint" />
            <mxPoint x="-400" y="330" as="targetPoint" />
          </mxGeometry>
        </mxCell>
        <mxCell id="c0dH4zre-CevIN4WQfnD-46" value="reponsive crosstalk" style="edgeLabel;html=1;align=center;verticalAlign=middle;resizable=0;points=[];fontColor=#82B366;" vertex="1" connectable="0" parent="c0dH4zre-CevIN4WQfnD-45">
          <mxGeometry x="-0.2286" y="1" relative="1" as="geometry">
            <mxPoint x="1" y="-3" as="offset" />
          </mxGeometry>
        </mxCell>
        <mxCell id="c0dH4zre-CevIN4WQfnD-48" value="" style="endArrow=classic;html=1;rounded=0;exitX=1;exitY=0.5;exitDx=0;exitDy=0;entryX=0;entryY=0.5;entryDx=0;entryDy=0;strokeColor=#9673A6;" edge="1" parent="1" source="c0dH4zre-CevIN4WQfnD-39" target="c0dH4zre-CevIN4WQfnD-44">
          <mxGeometry width="50" height="50" relative="1" as="geometry">
            <mxPoint x="400" y="420" as="sourcePoint" />
            <mxPoint x="450" y="370" as="targetPoint" />
          </mxGeometry>
        </mxCell>
        <mxCell id="c0dH4zre-CevIN4WQfnD-49" value="Summarized into" style="edgeLabel;html=1;align=center;verticalAlign=middle;resizable=0;points=[];fontColor=#9673A6;" vertex="1" connectable="0" parent="c0dH4zre-CevIN4WQfnD-48">
          <mxGeometry x="-0.0461" y="-3" relative="1" as="geometry">
            <mxPoint as="offset" />
          </mxGeometry>
        </mxCell>
        <mxCell id="c0dH4zre-CevIN4WQfnD-50" style="edgeStyle=orthogonalEdgeStyle;rounded=0;orthogonalLoop=1;jettySize=auto;html=1;exitX=1;exitY=0.5;exitDx=0;exitDy=0;entryX=0;entryY=0.5;entryDx=0;entryDy=0;fillColor=#e1d5e7;strokeColor=#9673a6;" edge="1" parent="1" source="c0dH4zre-CevIN4WQfnD-43" target="fis4cy7Ej7IjJM2nT0fo-83">
          <mxGeometry relative="1" as="geometry" />
        </mxCell>
        <mxCell id="c0dH4zre-CevIN4WQfnD-51" value="" style="endArrow=classic;html=1;rounded=0;entryX=0.5;entryY=1;entryDx=0;entryDy=0;strokeColor=#82B366;" edge="1" parent="1" target="c0dH4zre-CevIN4WQfnD-37">
          <mxGeometry width="50" height="50" relative="1" as="geometry">
            <mxPoint x="595" y="490" as="sourcePoint" />
            <mxPoint x="450" y="370" as="targetPoint" />
          </mxGeometry>
        </mxCell>
        <mxCell id="c0dH4zre-CevIN4WQfnD-52" value="data" style="shape=hexagon;perimeter=hexagonPerimeter2;whiteSpace=wrap;html=1;fixedSize=1;" vertex="1" parent="1">
          <mxGeometry x="160" y="623" width="80" height="30" as="geometry" />
        </mxCell>
        <mxCell id="c0dH4zre-CevIN4WQfnD-54" value="tool" style="rounded=0;whiteSpace=wrap;html=1;" vertex="1" parent="1">
          <mxGeometry x="160" y="583" width="80" height="30" as="geometry" />
        </mxCell>
        <mxCell id="c0dH4zre-CevIN4WQfnD-55" value="search components" style="rounded=0;whiteSpace=wrap;html=1;fillColor=#ffe6cc;strokeColor=#d79b00;" vertex="1" parent="1">
          <mxGeometry x="20" y="560" width="120" height="31" as="geometry" />
        </mxCell>
        <mxCell id="c0dH4zre-CevIN4WQfnD-56" value="shared components" style="rounded=0;whiteSpace=wrap;html=1;fillColor=#CCCCCC;" vertex="1" parent="1">
          <mxGeometry x="20" y="640" width="120" height="31" as="geometry" />
        </mxCell>
        <mxCell id="c0dH4zre-CevIN4WQfnD-57" value="map components" style="rounded=0;whiteSpace=wrap;html=1;fillColor=#f8cecc;strokeColor=#b85450;" vertex="1" parent="1">
          <mxGeometry x="20" y="601" width="120" height="31" as="geometry" />
        </mxCell>
        <mxCell id="c0dH4zre-CevIN4WQfnD-58" value="&lt;font style=&quot;font-size: 40px;&quot;&gt;Epiverse tool discovery&lt;/font&gt;" style="text;html=1;align=center;verticalAlign=middle;whiteSpace=wrap;rounded=0;" vertex="1" parent="1">
          <mxGeometry x="230" y="90" width="430" height="70" as="geometry" />
        </mxCell>
      </root>
    </mxGraphModel>
  </diagram>
</mxfile>
